<?xml version="1.0" standalone="no"?>
<!DOCTYPE svg PUBLIC "-//W3C//DTD SVG 20010904//EN"
 "http://www.w3.org/TR/2001/REC-SVG-20010904/DTD/svg10.dtd">
<svg version="1.0" xmlns="http://www.w3.org/2000/svg"
 width="1236.000000pt" height="549.000000pt" viewBox="0 0 1236.000000 549.000000"
 preserveAspectRatio="xMidYMid meet">

<g transform="translate(0.000000,549.000000) scale(0.100000,-0.100000)"
fill="#000000" stroke="none">
<path d="M9300 5002 c0 -12 -23 -241 -50 -509 -126 -1229 -188 -1859 -182
-1865 7 -6 740 -197 793 -205 l26 -5 -83 464 c-46 254 -86 474 -89 488 -9 43
7 9 170 -360 86 -195 184 -417 218 -494 l61 -139 90 7 c49 3 113 6 143 6 39 0
53 4 53 14 0 8 12 21 27 28 20 10 33 31 54 88 37 101 37 76 -1 -35 -16 -49
-30 -90 -30 -92 0 -2 100 -2 222 -1 l221 3 79 225 c43 124 100 288 127 365 27
77 111 316 186 530 75 215 170 487 211 605 42 118 102 291 135 384 32 93 59
173 59 179 0 5 -17 -1 -37 -14 -21 -13 -150 -80 -286 -149 l-249 -127 -249
-744 c-295 -881 -352 -1049 -357 -1044 -2 2 17 67 43 145 40 121 46 145 35
164 -9 18 -9 33 0 66 l12 43 -381 378 c-210 207 -381 379 -381 383 0 3 107 85
239 183 487 363 764 568 813 602 l51 36 -69 7 c-38 3 -207 12 -376 18 l-307
13 -54 -59 c-29 -33 -94 -104 -143 -160 -261 -296 -377 -424 -384 -424 -5 0
-83 226 -175 503 -92 276 -171 506 -176 512 -5 5 -9 0 -9 -13z m64 -422 c0
-47 -91 -969 -139 -1410 -8 -74 -22 -214 -31 -310 -9 -96 -18 -176 -19 -178
-1 -1 -9 0 -17 3 -9 4 -13 16 -11 33 4 26 82 801 160 1579 27 265 40 368 47
355 6 -9 10 -42 10 -72z m1184 -26 c186 -6 220 -9 211 -21 -9 -10 -40 -12
-148 -8 -75 3 -160 8 -189 10 -98 9 -119 -3 -234 -131 -57 -64 -152 -171 -212
-238 -60 -66 -139 -157 -176 -201 -86 -102 -115 -129 -134 -122 -21 8 -39 -18
-31 -45 5 -18 4 -20 -4 -8 -6 8 -11 20 -11 25 0 11 102 131 287 338 70 79 159
179 197 223 132 153 177 196 200 190 12 -2 121 -8 244 -12z m1046 -56 c-14
-28 -38 -43 -152 -98 -74 -36 -148 -77 -163 -93 -23 -22 -77 -176 -323 -916
-163 -489 -296 -896 -296 -904 0 -8 -11 -17 -25 -19 -14 -3 -25 -2 -25 1 0 3
140 426 311 939 l311 932 181 94 c100 51 185 94 189 95 4 0 0 -14 -8 -31z
m-1815 -1023 c173 -392 231 -525 231 -529 0 -2 21 -48 46 -102 88 -191 166
-375 161 -380 -2 -2 -52 108 -112 244 -60 136 -138 312 -173 392 -36 80 -77
174 -92 210 -15 36 -51 117 -80 180 -53 115 -107 242 -116 270 -11 34 61 -117
135 -285z"/>
<path d="M6324 4861 c-50 -80 -147 -236 -214 -346 -68 -110 -163 -263 -210
-340 -48 -77 -140 -225 -205 -330 -64 -104 -163 -264 -220 -355 -56 -91 -155
-250 -220 -355 -64 -104 -131 -212 -149 -239 l-31 -48 -255 -87 c-140 -48
-308 -107 -373 -131 l-119 -44 6 -101 c3 -55 9 -325 12 -600 4 -275 10 -666
13 -869 l6 -370 65 -12 c36 -6 283 -52 550 -103 266 -50 488 -91 493 -91 7 0
-1 969 -8 978 -2 2 -138 -36 -573 -163 -90 -26 -164 -46 -166 -44 -3 4 53 464
60 487 2 8 43 -14 113 -62 59 -40 117 -77 128 -80 14 -5 43 7 91 36 221 134
432 258 465 274 20 10 37 21 37 25 0 3 -66 19 -147 34 -82 15 -177 33 -213 41
-102 23 -383 74 -407 74 -13 0 -23 3 -23 7 0 16 42 319 46 331 3 9 32 -8 87
-50 135 -106 368 -270 373 -265 7 6 104 294 104 306 0 4 -28 15 -62 25 -383
104 -428 118 -412 123 6 2 127 -28 269 -67 142 -38 263 -70 270 -70 8 0 33 51
58 118 25 64 73 189 107 277 34 88 67 175 73 193 l10 32 258 0 c142 0 260 -3
262 -7 3 -5 -9 -48 -27 -98 l-31 -90 -120 -62 c-66 -34 -124 -64 -128 -65 -4
-2 -103 -280 -218 -618 l-211 -615 6 -414 c4 -228 8 -416 9 -417 1 -1 40 1 86
5 l84 6 124 345 c158 438 205 568 293 815 40 110 101 280 136 378 35 98 64
184 64 192 0 13 -15 14 -99 9 -67 -5 -100 -3 -105 4 -10 16 0 17 383 52 190
17 346 32 348 34 1 1 -6 49 -17 107 -17 94 -64 361 -134 769 -265 1524 -287
1652 -295 1666 -3 6 -47 -55 -97 -135z m14 -203 c-29 -48 -86 -140 -126 -205
-40 -65 -96 -156 -125 -202 -29 -46 -83 -135 -122 -197 -38 -63 -110 -178
-159 -256 -108 -174 -256 -413 -404 -653 -61 -99 -132 -214 -158 -255 -89
-141 -170 -275 -177 -294 -5 -11 -13 -16 -23 -12 -9 3 -20 6 -25 6 -10 0 18
49 140 245 95 151 235 377 406 655 60 96 148 238 195 315 48 77 136 219 195
315 60 96 158 256 220 355 61 99 131 213 156 252 43 72 44 72 52 45 8 -24 1
-41 -45 -114z m-72 -1068 c79 -341 86 -379 80 -406 l-6 -24 -239 0 c-132 0
-246 3 -255 6 -46 18 19 24 245 24 234 0 250 1 245 18 -3 9 -28 116 -56 237
-27 121 -59 257 -70 302 -11 45 -20 93 -19 105 0 23 0 23 11 -2 5 -14 34 -131
64 -260z m-118 80 c7 -30 30 -131 52 -225 22 -93 40 -174 40 -178 0 -4 -79 -7
-175 -6 -96 1 -175 4 -175 7 0 17 236 470 241 464 3 -4 11 -32 17 -62z m246
-666 c3 -9 -17 -82 -45 -162 -28 -81 -60 -172 -70 -202 -48 -146 -57 -165 -80
-168 -18 -3 -20 0 -14 15 4 10 45 128 91 263 46 135 86 251 89 258 6 17 22 15
29 -4z m-1408 -295 c-8 -13 -44 -33 -78 -46 -123 -45 -264 -95 -339 -119 -132
-41 -122 -13 -120 -350 1 -159 4 -345 6 -414 2 -69 6 -334 10 -590 4 -256 9
-469 12 -473 3 -5 -3 -7 -13 -5 -21 4 -20 -31 -39 1288 l-7 535 158 54 c88 29
218 75 289 101 72 25 132 45 134 44 1 -1 -4 -13 -13 -25z m1175 -52 c-6 -15
-28 -35 -50 -47 -51 -25 -62 -43 -99 -155 -17 -49 -83 -243 -147 -430 -64
-187 -139 -407 -167 -490 -28 -82 -59 -171 -70 -197 -20 -47 -38 -55 -38 -18
0 10 61 198 136 417 75 219 172 505 216 636 l80 238 71 39 c39 21 73 38 74 36
2 -2 -1 -15 -6 -29z m-1053 -747 c150 -27 278 -50 285 -50 7 0 6 -4 -3 -9 -15
-9 -128 8 -387 59 -56 11 -112 20 -125 20 -13 1 -36 7 -53 15 -52 23 -4 18
283 -35z m282 -615 c0 -21 -34 -33 -285 -102 -11 -3 -65 -19 -120 -35 -55 -17
-113 -34 -130 -38 -16 -4 -57 -15 -90 -24 -52 -14 -61 -14 -74 -2 -12 13 -7
17 45 32 32 9 187 53 344 99 157 45 291 83 298 84 6 0 12 -6 12 -14z"/>
<path d="M8974 4987 c-6 -12 -57 -96 -114 -187 -133 -213 -199 -319 -357 -575
-72 -115 -229 -370 -350 -565 -121 -195 -268 -434 -328 -530 -311 -505 -296
-485 -333 -461 -17 10 -7 30 83 176 176 286 188 309 191 358 2 26 11 60 20 76
15 25 15 32 0 92 -24 95 -77 196 -141 267 -66 73 -102 98 -245 177 -224 124
-298 190 -320 289 -24 107 54 243 168 292 49 21 149 21 190 0 75 -39 293 -359
482 -709 29 -54 54 -97 55 -95 2 2 18 28 35 58 39 65 40 90 9 280 -50 316
-141 539 -282 691 -57 62 -107 93 -201 124 -216 72 -427 28 -583 -122 -141
-137 -194 -254 -201 -448 -7 -198 37 -321 160 -451 81 -84 157 -138 334 -231
91 -49 135 -78 160 -108 70 -86 91 -181 58 -260 -22 -53 -110 -142 -169 -172
-67 -35 -159 -42 -222 -18 -53 21 -126 84 -180 157 -19 27 -37 47 -39 45 -2
-2 9 -77 25 -168 16 -90 31 -175 33 -189 3 -21 -2 -25 -35 -33 -36 -9 -38 -11
-31 -41 8 -40 9 -40 49 -38 29 2 35 -1 35 -17 0 -12 -8 -21 -21 -23 -38 -5
-45 -30 -31 -109 10 -60 10 -75 -1 -86 -8 -9 -86 -20 -222 -33 -126 -13 -212
-25 -216 -32 -4 -7 -46 -122 -93 -257 -47 -135 -135 -388 -195 -561 -61 -173
-111 -325 -111 -337 0 -57 99 -270 170 -364 182 -243 413 -359 713 -359 267 0
450 74 640 257 120 116 200 231 274 391 32 68 105 274 99 279 -1 1 -114 50
-251 109 -723 308 -957 406 -961 402 -4 -5 27 -85 208 -540 l91 -228 209 0
209 0 -48 -62 c-81 -103 -187 -178 -302 -212 -121 -36 -289 -30 -387 13 -90
40 -175 170 -208 318 -25 111 -31 284 -12 375 38 192 172 423 348 599 87 87
159 132 248 155 120 30 217 7 366 -91 213 -139 377 -361 464 -630 28 -88 36
-96 44 -48 8 41 151 599 161 625 7 18 -94 131 -154 172 -20 14 -75 37 -122 51
-98 29 -105 30 -90 11 7 -8 -24 0 -71 19 -46 18 -98 39 -117 46 -19 7 -29 15
-23 17 6 2 129 -29 273 -68 143 -39 266 -69 272 -67 7 3 36 69 66 148 30 79
83 216 117 304 l62 160 261 3 c143 1 261 0 261 -2 0 -5 -69 -210 -113 -336
l-23 -65 -47 -7 c-130 -18 -279 -93 -386 -194 -76 -71 -78 -75 -94 -146 -27
-122 -113 -502 -157 -693 -23 -99 -50 -220 -62 -270 -26 -115 -25 -133 13
-246 133 -398 412 -629 758 -629 268 1 470 116 651 372 92 130 163 308 197
488 26 142 24 432 -5 562 -42 192 -118 353 -235 498 l-53 65 -57 3 c-36 2 -57
-1 -57 -8 0 -7 -17 -9 -47 -7 -27 2 -127 -4 -223 -13 -123 -12 -181 -14 -195
-7 -19 10 -19 11 5 18 14 4 113 15 220 24 279 24 451 42 456 48 3 3 -57 19
-133 37 -76 18 -166 44 -200 57 -62 25 -63 26 -63 64 0 21 6 89 14 151 8 62
26 212 41 333 14 121 32 270 40 330 40 314 47 394 41 490 -3 55 -2 129 2 165
6 53 0 106 -29 280 -79 462 -113 650 -119 650 -3 0 -10 -10 -16 -23z m-14
-223 c0 -23 -74 -156 -152 -272 -18 -27 -51 -80 -73 -116 -53 -89 -159 -258
-201 -323 -19 -28 -34 -54 -34 -58 0 -3 -28 -50 -62 -105 -35 -54 -82 -129
-105 -167 -206 -332 -278 -448 -359 -578 -51 -82 -102 -166 -113 -185 -12 -19
-57 -91 -101 -160 -44 -69 -91 -146 -105 -172 -19 -37 -29 -45 -45 -41 -11 3
-20 8 -20 10 0 7 16 33 158 263 63 102 151 244 195 315 44 72 130 211 192 310
110 178 223 359 432 698 58 94 143 231 187 302 45 72 106 171 136 222 55 91
70 104 70 57z m-1491 -79 c31 -8 81 -28 111 -46 30 -17 46 -27 35 -23 -11 4
-49 18 -85 31 -91 34 -211 35 -299 4 -170 -60 -306 -201 -355 -371 -37 -125
-28 -299 19 -390 9 -17 13 -30 10 -30 -3 0 -19 27 -34 61 -72 151 -58 384 31
524 68 106 192 208 293 238 65 20 202 21 274 2z m1316 -858 c4 -17 27 -120 52
-227 76 -330 91 -407 81 -424 -8 -14 -39 -16 -248 -16 -131 0 -245 3 -254 6
-46 18 19 24 245 24 234 0 250 1 245 18 -3 9 -7 28 -10 42 -3 14 -35 154 -71
312 -36 158 -65 292 -65 298 0 23 19 -1 25 -33z m-825 -31 c0 -12 -5 -7 -19
24 -11 24 -11 24 3 6 9 -11 16 -24 16 -30z m798 -288 c29 -128 53 -237 52
-241 0 -8 -328 -8 -342 0 -8 4 223 473 232 473 3 0 29 -105 58 -232z m-1193
-229 c29 -87 21 -183 -22 -259 -35 -61 -58 -85 -123 -130 -107 -72 -231 -91
-345 -51 -32 11 -61 24 -64 27 -3 4 3 4 14 0 99 -36 207 -29 306 21 169 84
266 269 216 410 -8 24 -11 40 -7 38 5 -3 16 -28 25 -56z m1403 -283 c2 -10
-12 -61 -31 -114 -59 -161 -137 -390 -137 -402 0 -5 -11 -10 -25 -10 l-24 0
23 63 c13 34 56 158 96 275 68 198 89 238 98 188z m-1505 -412 c22 -15 22 -15
-5 -9 -19 5 -36 1 -55 -13 -59 -42 -240 -47 -366 -12 -61 18 -35 23 44 10 118
-20 268 0 296 39 11 17 18 19 39 11 14 -6 36 -17 47 -26z m1217 -83 c0 -16
-30 -41 -50 -41 -10 0 -55 -18 -100 -41 -62 -31 -105 -63 -180 -135 -53 -52
-103 -94 -109 -94 -23 0 -9 30 41 89 85 101 212 184 331 216 64 17 67 17 67 6z
m215 -232 c193 -35 350 -198 401 -414 23 -101 16 -287 -15 -375 -65 -187 -219
-341 -387 -385 -69 -19 -208 -21 -279 -5 -139 31 -272 138 -337 270 -56 112
-71 192 -65 335 5 130 25 204 82 301 81 138 242 252 395 277 51 9 148 7 205
-4z m469 -307 c48 -125 58 -195 53 -337 -4 -106 -10 -144 -32 -207 -67 -193
-204 -341 -380 -409 -140 -54 -324 -51 -472 8 -75 30 -80 41 -5 13 164 -62
401 -37 549 59 274 178 387 533 275 867 -33 98 -25 102 12 6z m-1435 -142 c0
-10 -3 -8 -9 5 -12 27 -12 43 0 25 5 -8 9 -22 9 -30z m-884 -110 c66 -28 148
-64 182 -80 34 -16 169 -74 300 -129 131 -55 255 -107 277 -116 21 -9 36 -18
33 -21 -3 -3 -24 4 -48 15 -24 11 -156 67 -294 125 -137 58 -319 135 -403 171
-148 64 -182 72 -182 42 0 -8 32 -95 71 -193 79 -199 113 -291 102 -281 -4 4
-53 123 -110 265 -57 141 -106 263 -110 270 -4 11 2 10 28 -1 19 -9 88 -38
154 -67z m-842 -670 c36 -74 26 -76 -12 -3 -34 69 -71 174 -70 200 0 10 13
-18 28 -62 16 -45 40 -105 54 -135z m1851 103 c18 -80 62 -206 84 -241 8 -12
13 -25 10 -27 -15 -16 -112 239 -123 323 -9 67 9 34 29 -55z m-478 32 c8 -20
-47 -110 -118 -194 -49 -58 -100 -100 -188 -153 -87 -52 -276 -85 -401 -68
-81 10 -175 36 -184 49 -3 5 16 2 43 -6 70 -23 287 -23 372 1 162 45 296 147
402 309 51 78 64 89 74 62z"/>
<path d="M4580 4936 c-5 -13 -63 -183 -129 -378 -435 -1285 -538 -1584 -546
-1598 -3 -6 -15 -10 -25 -10 -24 0 -45 -63 -23 -68 18 -5 16 -31 -2 -39 -21
-7 -49 -64 -91 -181 -19 -53 -40 -99 -47 -104 -6 -4 -34 -8 -62 -8 -77 0 -120
-16 -156 -58 -17 -20 -64 -71 -103 -113 -39 -42 -84 -92 -100 -110 -76 -91
-118 -129 -142 -129 -37 0 -60 -29 201 259 66 73 122 137 123 142 2 5 -18 9
-44 9 -52 0 -50 2 -221 -182 l-71 -76 -58 166 c-31 92 -61 172 -66 178 -6 8
-36 3 -108 -19 -88 -27 -100 -33 -105 -56 -3 -14 -25 -222 -50 -461 -25 -239
-57 -543 -71 -675 -13 -132 -30 -293 -36 -357 -10 -102 -14 -118 -30 -118 -14
0 -16 6 -13 28 5 25 42 384 130 1247 19 193 37 359 40 370 5 24 44 39 279 106
93 27 170 50 172 51 1 2 149 413 328 913 178 501 328 918 331 928 7 16 -4 17
-185 15 l-192 -3 -38 -95 c-20 -52 -76 -196 -123 -320 -47 -124 -89 -233 -92
-242 -7 -17 -31 -18 -309 -18 l-302 0 -28 352 c-15 194 -29 355 -31 357 -10 9
-416 73 -423 66 -2 -2 6 -273 17 -602 11 -329 26 -761 33 -960 8 -242 15 -363
22 -363 6 0 125 25 264 57 230 52 252 58 252 77 0 27 -47 583 -55 654 l-6 52
230 0 c127 0 231 -1 231 -3 0 -2 -48 -120 -106 -263 -58 -142 -113 -278 -122
-301 -9 -24 -19 -43 -22 -43 -3 0 -32 80 -65 178 l-59 177 -9 -45 c-9 -46 -3
-326 9 -391 5 -29 2 -41 -14 -57 -11 -11 -25 -21 -32 -24 -8 -2 -23 -107 -46
-328 -18 -179 -63 -610 -99 -958 -37 -348 -65 -643 -63 -654 3 -18 49 -32 426
-125 233 -58 425 -103 428 -100 3 3 -35 227 -85 498 -49 272 -89 495 -87 497
2 1 14 -23 26 -55 24 -60 36 -87 290 -647 l154 -339 95 7 c53 3 192 6 309 6
203 0 212 1 212 19 0 11 6 26 14 34 19 18 11 341 -9 373 -7 11 -16 47 -19 80
l-6 59 -153 150 c-83 82 -229 224 -322 315 -94 91 -225 218 -291 283 l-122
118 156 112 c190 137 559 404 764 552 84 61 174 124 200 140 27 17 48 33 48
38 0 4 -40 7 -88 7 -84 0 -90 -2 -130 -32 -35 -27 -39 -34 -25 -39 14 -5 10
-10 -22 -24 -22 -9 -53 -24 -70 -32 -30 -14 -173 -117 -210 -151 -55 -50 -144
-104 -162 -98 -16 7 -12 13 27 48 25 22 59 51 75 63 17 12 119 88 228 169 227
168 190 117 332 464 69 169 81 192 101 192 26 0 30 -15 109 -405 26 -126 51
-234 55 -238 4 -5 52 -3 106 3 73 8 103 16 114 29 8 10 27 21 42 25 27 6 46
35 157 229 12 22 13 31 4 46 -10 15 -8 26 7 56 l19 37 -87 85 c-48 46 -106
101 -129 120 -24 19 -43 38 -43 42 0 4 17 13 38 20 124 43 283 174 332 275 41
83 57 205 42 314 -11 81 -63 226 -126 350 -35 70 -135 211 -177 249 -21 19
-456 233 -473 233 -4 0 -11 -11 -16 -24z m177 -140 c2 -2 -14 1 -37 7 -32 9
-43 8 -54 -3 -13 -14 -69 -168 -166 -460 -36 -109 -240 -708 -371 -1090 -33
-96 -80 -238 -105 -315 -29 -88 -55 -149 -70 -164 -13 -14 -26 -22 -29 -19 -3
3 13 56 35 119 45 129 263 770 505 1486 90 266 167 487 170 493 5 8 105 -36
122 -54z m143 -66 c52 -27 92 -49 88 -49 -7 -1 -188 86 -196 94 -15 15 23 -1
108 -45z m-2513 -135 c57 -8 107 -15 113 -15 5 0 10 -5 10 -11 0 -6 -16 -9
-42 -6 -172 20 -173 20 -187 3 -11 -13 -11 -96 3 -519 9 -276 19 -583 22 -682
4 -99 9 -249 13 -332 4 -111 3 -154 -5 -157 -13 -5 -20 83 -29 364 -8 270 -24
741 -30 880 -2 69 -8 210 -11 313 l-7 188 24 -5 c13 -4 70 -13 126 -21z m1387
-80 c-4 -11 -17 -13 -47 -9 -23 3 -62 1 -87 -3 -58 -11 -46 15 -246 -518 -25
-66 -53 -128 -61 -137 -15 -17 -45 -18 -352 -18 -200 0 -342 4 -351 10 -10 6
100 10 320 10 184 0 340 4 346 8 5 4 33 68 61 142 43 114 156 409 192 503 l11
27 109 0 c93 0 109 -2 105 -15z m1125 -235 c96 -49 144 -180 111 -301 -13 -47
-81 -124 -132 -150 -46 -23 -155 -49 -211 -49 -37 0 -38 1 -32 33 3 17 16 124
30 237 14 113 27 219 30 235 l5 31 80 -8 c46 -4 96 -16 119 -28z m208 -133
c26 -76 24 -189 -5 -248 -47 -96 -123 -161 -228 -195 -60 -19 -258 -31 -267
-17 -4 7 21 13 66 17 215 21 339 91 399 224 28 62 35 177 15 236 -9 26 -12 44
-7 41 5 -3 17 -29 27 -58z m-1837 -526 c0 -11 -39 -115 -86 -232 -48 -118
-104 -259 -126 -314 -21 -55 -46 -115 -54 -133 -8 -18 -28 -69 -45 -113 -22
-56 -38 -83 -52 -89 -12 -4 -23 -7 -25 -5 -3 3 343 867 360 898 11 21 28 13
28 -12z m1479 -227 c38 -171 91 -437 91 -457 0 -12 -4 -17 -8 -11 -8 8 -123
556 -122 579 1 26 21 -31 39 -111z m-1909 -495 c0 -20 -11 -65 -25 -100 l-26
-64 5 45 c3 25 8 83 12 130 7 81 8 84 20 55 7 -16 13 -46 14 -66z m370 -1009
c51 -113 135 -298 186 -412 52 -114 94 -209 94 -211 0 -3 29 -66 65 -141 36
-75 65 -138 65 -141 0 -2 25 -59 56 -125 30 -67 53 -124 51 -126 -2 -3 -37 69
-77 158 -40 90 -97 215 -126 278 -28 63 -106 234 -172 380 -66 146 -132 292
-147 325 -40 86 -95 216 -95 223 0 12 12 -12 100 -208z"/>
<path d="M4230 4746 c-192 -96 -248 -129 -258 -149 -7 -15 -48 -127 -92 -250
-43 -122 -135 -382 -205 -577 -70 -195 -142 -398 -160 -450 -18 -52 -68 -192
-110 -310 -97 -273 -145 -412 -145 -422 0 -4 98 -8 218 -8 l218 0 26 78 c14
42 61 176 103 297 42 121 94 270 115 330 38 110 65 187 310 885 239 682 245
700 233 699 -4 0 -118 -55 -253 -123z m123 -47 c-7 -25 -54 -55 -177 -115 -63
-31 -98 -54 -109 -73 -9 -16 -42 -100 -73 -187 -96 -273 -161 -457 -184 -519
-12 -33 -39 -109 -60 -170 -21 -60 -61 -173 -89 -250 -125 -351 -205 -576
-229 -647 -22 -66 -30 -78 -48 -78 l-23 0 31 83 c16 45 56 156 88 247 32 91
115 325 185 520 69 195 178 501 242 680 63 179 119 336 124 350 7 19 44 43
162 102 83 42 155 77 159 77 3 1 4 -8 1 -20z"/>
<path d="M1630 4773 c-115 -19 -227 -81 -316 -175 -140 -148 -203 -341 -175
-540 21 -152 74 -255 185 -361 76 -73 128 -108 288 -192 70 -37 144 -85 166
-107 49 -48 83 -117 90 -180 13 -132 -162 -298 -315 -298 -77 0 -122 20 -190
84 -137 128 -255 357 -378 731 -50 152 -53 160 -80 163 -15 2 -32 -1 -37 -6
-6 -6 -3 -82 6 -203 9 -107 25 -304 35 -438 20 -242 20 -245 55 -315 57 -115
156 -218 285 -296 181 -111 427 -115 609 -10 71 42 193 159 242 234 33 50 40
69 40 111 0 27 5 79 10 114 8 44 7 84 0 135 -6 39 -17 123 -23 187 -11 100
-16 122 -41 160 -48 72 -136 151 -230 204 -282 160 -331 198 -372 280 -22 47
-26 64 -21 109 10 96 78 190 166 229 61 27 163 27 200 -1 39 -28 138 -150 206
-251 33 -50 62 -91 65 -91 3 0 3 32 2 71 -3 56 0 74 13 89 16 17 17 35 10 157
-4 84 -13 149 -21 165 -8 15 -14 49 -14 76 0 58 -10 69 -100 111 -105 48 -257
71 -360 54z m212 -84 c46 -10 168 -63 168 -73 0 -2 -37 10 -82 27 -155 56
-306 36 -446 -60 -64 -44 -131 -117 -171 -186 -82 -144 -95 -373 -28 -509 13
-26 19 -44 14 -41 -20 12 -66 129 -78 196 -13 82 -7 209 15 278 51 165 220
334 369 369 49 12 180 11 239 -1z m-22 -984 c0 -3 -18 4 -40 15 -22 11 -40 23
-40 25 0 3 18 -4 40 -15 22 -11 40 -23 40 -25z m-830 -220 c12 -35 19 -69 15
-74 -3 -6 1 -99 10 -208 13 -169 19 -205 40 -248 36 -75 23 -65 -17 12 -35 67
-36 70 -52 288 -9 121 -19 237 -22 258 -9 56 2 45 26 -28z m974 -315 c1 -75
-2 -91 -28 -137 -58 -105 -163 -183 -279 -207 -56 -12 -76 -12 -138 0 -40 7
-77 19 -83 25 -8 9 -6 10 8 5 11 -4 45 -9 76 -13 108 -11 238 44 323 137 86
94 116 191 94 305 l-7 40 17 -35 c12 -24 17 -61 17 -120z"/>
<path d="M11060 2574 c-18 -45 -60 -167 -60 -172 0 -2 59 -2 130 0 72 1 130 5
130 8 0 3 -43 48 -95 100 l-94 94 -11 -30z"/>
</g>
</svg>
